<svg id="Layer_1" data-name="Layer 1" xmlns="http://www.w3.org/2000/svg" viewBox="0 0 146.77 141.73"><defs><style>.cls-1{fill:#b51d1d;}.cls-2{fill:#fff;}</style></defs><title>email-icon</title><path class="cls-1" d="M148,58.2v87.46c-.47,0-.93-.09-1.4-.09H2.63c-.47,0-.93.06-1.4.09V58.2a9.86,9.86,0,0,0,1.2-.65q9.52-7.08,19-14.19Q34,34,46.57,24.55,60.12,14.44,73.66,4.33a1.39,1.39,0,0,1,2,0c3.61,2.78,7.28,5.5,10.94,8.23q8.11,6,16.23,12.09,10,7.46,20,14.93t20.06,15C144.54,55.85,146.29,57,148,58.2ZM10.63,141.1h128l-1.5-1.19c-2.75-2.12-5.51-4.22-8.25-6.35q-8.69-6.75-17.36-13.5c-5.33-4.14-10.69-8.24-16-12.37Q85.35,99.88,75.28,92a.89.89,0,0,0-1.32,0c-2.79,2.19-5.61,4.36-8.41,6.53l-19,14.69L31,125.29q-6.35,4.9-12.66,9.82ZM60.57,96.49,6.5,60.21v78.13Zm28.1,0,54.07,41.85V60.21ZM79.79,44c-.59-.62-1-1.17-1.56-1.62-2.63-2.28-8.23-2-11.36.63A17.44,17.44,0,0,0,60.39,58.8a9.28,9.28,0,0,0,15.83,5.76,3.77,3.77,0,0,0,3.11,2.61,13.48,13.48,0,0,0,7.1-1c8.25-3.55,12.39-13.65,9.48-22.47-2.33-7.09-7.5-10.91-14.6-12.32a28,28,0,0,0-15,1.11A21,21,0,0,0,55.87,40.3,26.06,26.06,0,0,0,51.24,58a21.66,21.66,0,0,0,4.28,11.48,19.94,19.94,0,0,0,10.85,7,36.57,36.57,0,0,0,14.27,1.14c5.13-.59,9.91-2.13,13.79-5.78a14.75,14.75,0,0,0,3.59-5c-1.68,0-3.2,0-4.71,0a1.61,1.61,0,0,0-.91.61,15.62,15.62,0,0,1-7,4.48,31,31,0,0,1-17.23.31A15.67,15.67,0,0,1,57.4,63.82,18.79,18.79,0,0,1,56,51.61C57.26,45,60.51,39.78,67,37.07a24.44,24.44,0,0,1,13.59-1.22c6.44,1,11.68,6.09,11.84,13,.12,5.48-2,9.88-6.71,12.84a6.67,6.67,0,0,1-2.29.46,7.65,7.65,0,0,1-.2-2.21c.88-4.56,1.85-9.11,2.78-13.66.32-1.54.61-3.09,1-4.8h-3.6C80.68,41.44,80.68,41.44,79.79,44Z" transform="translate(-1.23 -3.92)"/><path class="cls-2" d="M10.63,141.1l7.72-6q6.31-4.91,12.66-9.82l15.55-12,19-14.69c2.8-2.17,5.62-4.34,8.41-6.53a.89.89,0,0,1,1.32,0q10.06,7.84,20.16,15.65c5.34,4.13,10.7,8.23,16,12.37q8.7,6.73,17.36,13.5c2.74,2.13,5.5,4.23,8.25,6.35l1.5,1.19Z" transform="translate(-1.23 -3.92)"/><path class="cls-2" d="M60.57,96.49,6.5,138.34V60.21Z" transform="translate(-1.23 -3.92)"/><path class="cls-2" d="M88.67,96.49l54.07-36.28v78.13Z" transform="translate(-1.23 -3.92)"/><path class="cls-2" d="M79.79,44c.89-2.57.89-2.57,3.54-2.57h3.6c-.34,1.71-.63,3.26-1,4.8-.93,4.55-1.9,9.1-2.78,13.66a7.65,7.65,0,0,0,.2,2.21,6.67,6.67,0,0,0,2.29-.46c4.7-3,6.83-7.36,6.71-12.84-.16-6.87-5.4-12-11.84-13A24.44,24.44,0,0,0,67,37.07c-6.46,2.71-9.71,7.9-11,14.54A18.79,18.79,0,0,0,57.4,63.82a15.67,15.67,0,0,0,10.75,8.47A31,31,0,0,0,85.38,72a15.62,15.62,0,0,0,7-4.48,1.61,1.61,0,0,1,.91-.61c1.51-.06,3,0,4.71,0a14.75,14.75,0,0,1-3.59,5c-3.88,3.65-8.66,5.19-13.79,5.78a36.57,36.57,0,0,1-14.27-1.14,19.94,19.94,0,0,1-10.85-7A21.66,21.66,0,0,1,51.24,58,26.06,26.06,0,0,1,55.87,40.3,21,21,0,0,1,66.3,32.51a28,28,0,0,1,15-1.11c7.1,1.41,12.27,5.23,14.6,12.32,2.91,8.82-1.23,18.92-9.48,22.47a13.48,13.48,0,0,1-7.1,1,3.77,3.77,0,0,1-3.11-2.61A9.28,9.28,0,0,1,60.39,58.8,17.44,17.44,0,0,1,66.87,43c3.13-2.59,8.73-2.91,11.36-.63C78.76,42.84,79.2,43.39,79.79,44ZM66.63,56.54c0,2.24.19,4.17,1.91,5.45,2.2,1.64,5.55.7,7.25-2A17.64,17.64,0,0,0,78.53,51c.07-2.06-.44-4-2.4-5.13a4.5,4.5,0,0,0-5,.32A7.19,7.19,0,0,0,69.23,48,15.94,15.94,0,0,0,66.63,56.54Z" transform="translate(-1.23 -3.92)"/><path class="cls-1" d="M66.63,56.54A15.94,15.94,0,0,1,69.23,48a7.19,7.19,0,0,1,1.94-1.83,4.5,4.5,0,0,1,5-.32c2,1.16,2.47,3.07,2.4,5.13A17.64,17.64,0,0,1,75.79,60c-1.7,2.66-5.05,3.6-7.25,2C66.82,60.71,66.66,58.78,66.63,56.54Z" transform="translate(-1.23 -3.92)"/></svg>