<?xml version="1.0" encoding="utf-8"?>
<!-- Generator: Adobe Illustrator 22.1.0, SVG Export Plug-In . SVG Version: 6.00 Build 0)  -->
<svg version="1.1" id="Layer_1" xmlns="http://www.w3.org/2000/svg" xmlns:xlink="http://www.w3.org/1999/xlink" x="0px" y="0px"
	 viewBox="0 0 150 150" style="enable-background:new 0 0 150 150;" xml:space="preserve">
<style type="text/css">
	.st0{fill:#B51D1D;}
	.st1{fill:#FFFFFF;}
</style>
<g>
	<path class="st0" d="M0.7,131.8c0-37.7,0-75.5,0-113.2c0.3-0.9,0.7-1.8,0.9-2.7C3.2,10,6.7,5.6,12.1,3c2-1,4.3-1.6,6.4-2.3
		c37.7,0,75.5,0,113.2,0c0.9,0.3,1.8,0.7,2.7,0.9c5.8,1.6,10.2,5.1,12.8,10.5c1,2,1.6,4.3,2.3,6.4c0,37.7,0,75.5,0,113.2
		c-0.3,0.9-0.7,1.8-0.9,2.7c-1.7,6.1-5.3,10.5-11.1,13.1c-1.9,0.8-3.9,1.4-5.8,2.1c-11.3,0-22.5,0-33.8,0c0-17.5,0-35,0-52.9
		c6,0,11.3,0,16.7,0c3.5,0,4.8-1.2,5.2-4.6c0.5-4.6,1.1-9.2,1.6-13.8c0.5-4.7-0.5-6-5.4-6c-5.1-0.1-10.2-0.1-15.2,0
		c-2.1,0-3-0.7-2.9-2.9c0.1-4.2,0-8.4,0.1-12.6c0.1-5.8,2.6-8.5,8.4-8.9c3.3-0.2,6.6-0.1,9.9-0.1c2.7,0,4.5-1.3,4.6-4.1
		c0.2-4.5,0.1-9,0-13.6c-0.1-2-1-3.8-3.3-3.8c-6.9,0-14-0.6-20.8,0.4c-13.7,1.9-22.5,12.8-22.9,27.4c-0.1,5-0.2,9.9,0,14.9
		c0.1,2.7-1,3.5-3.5,3.4c-2.9-0.1-5.7-0.1-8.6,0c-3.9,0.1-5.1,1.4-5.1,5.3c0,4.4,0,8.8,0,13.2c0,4.7,1.2,5.9,5.9,5.9
		c3.7,0,7.4,0,11.4,0c0,18,0,35.5,0,52.9c-18.5,0-37.1,0-55.6,0c-0.9-0.3-1.8-0.7-2.7-0.9C10,147.1,5.6,143.6,3,138.2
		C2,136.2,1.4,133.9,0.7,131.8z"/>
	<path class="st1" d="M74.2,149.7c0-17.4,0-34.9,0-52.9c-4,0-7.7,0-11.4,0c-4.6,0-5.8-1.2-5.9-5.9c0-4.4,0-8.8,0-13.2
		c0-3.9,1.3-5.1,5.1-5.3c2.9-0.1,5.7-0.1,8.6,0c2.5,0.1,3.6-0.6,3.5-3.4c-0.2-5-0.2-9.9,0-14.9c0.4-14.6,9.2-25.5,22.9-27.4
		c6.8-0.9,13.9-0.4,20.8-0.4c2.3,0,3.2,1.8,3.3,3.8c0.1,4.5,0.2,9.1,0,13.6c-0.1,2.8-1.9,4.1-4.6,4.1c-3.3,0-6.6-0.1-9.9,0.1
		c-5.7,0.4-8.3,3.1-8.4,8.9c-0.1,4.2,0,8.4-0.1,12.6c-0.1,2.2,0.8,2.9,2.9,2.9c5.1-0.1,10.2-0.1,15.2,0c4.8,0.1,5.9,1.3,5.4,6
		c-0.5,4.6-1,9.2-1.6,13.8c-0.4,3.4-1.7,4.6-5.2,4.6c-5.4,0.1-10.8,0-16.7,0c0,17.9,0,35.4,0,52.9C90.1,149.7,82.1,149.7,74.2,149.7
		z"/>
</g>
</svg>
