<?xml version="1.0" encoding="utf-8"?>
<!-- Generator: Adobe Illustrator 22.1.0, SVG Export Plug-In . SVG Version: 6.00 Build 0)  -->
<svg version="1.1" id="Layer_1" xmlns="http://www.w3.org/2000/svg" xmlns:xlink="http://www.w3.org/1999/xlink" x="0px" y="0px"
	 viewBox="0 0 113.8 113.6" style="enable-background:new 0 0 113.8 113.6;" xml:space="preserve">
<style type="text/css">
	.st0{fill:#B51D1D;}
</style>
<title>phone-icon</title>
<path class="st0" d="M0,30.2C0.5,18.9,3.7,11.3,9.6,4.9c4-4.4,9.7-4.5,15.1-4.9c1.1-0.1,2.7,1.7,3.5,2.9c4.2,6.9,8.2,13.9,12.3,20.9
	c1.6,2.7,1.4,5.1-0.9,7.2c-3.1,2.9-6.4,5.6-9.6,8.4c-3,2.6-3.2,5.5-1.3,9c8.2,15.8,21,28.7,36.8,36.9c3.7,2,6.6,1.7,9.3-1.6
	c2.4-3,5-5.8,7.5-8.7c2.3-2.7,4.8-3.3,8.1-1.3c6.6,4.1,13.4,7.9,20.2,11.7c2.9,1.6,3.7,3.6,3.1,6.9C111.1,106,96.7,115.9,82,113
	c-7.4-1.4-14.5-3.7-21.2-7C35.3,93.3,15.9,74.5,5.5,47.5C3,41.1,1.3,34.5,0,30.2z"/>
</svg>
