<svg id="Layer_1" data-name="Layer 1" xmlns="http://www.w3.org/2000/svg" viewBox="0 0 500 118"><defs><style>.cls-1{fill:blue;}</style></defs><title>Artboard 1</title><polygon class="cls-1" points="90.63 22.81 101.25 44.35 125.02 47.8 107.82 64.56 111.88 88.23 90.63 77.06 69.37 88.23 73.43 64.56 56.23 47.8 80 44.35 90.63 22.81"/><polygon class="cls-1" points="169.12 22.81 179.75 44.35 203.52 47.8 186.32 64.56 190.38 88.23 169.12 77.06 147.86 88.23 151.92 64.56 134.73 47.8 158.49 44.35 169.12 22.81"/><polygon class="cls-1" points="247.62 22.81 258.25 44.35 282.01 47.8 264.81 64.56 268.87 88.23 247.62 77.06 226.36 88.23 230.42 64.56 213.22 47.8 236.99 44.35 247.62 22.81"/><polygon class="cls-1" points="326.11 22.81 336.74 44.35 360.5 47.8 343.31 64.56 347.37 88.23 326.11 77.06 304.85 88.23 308.91 64.56 291.72 47.8 315.48 44.35 326.11 22.81"/><polygon class="cls-1" points="404.61 22.81 415.23 44.35 439 47.8 421.8 64.56 425.86 88.23 404.61 77.06 383.35 88.23 387.41 64.56 370.21 47.8 393.98 44.35 404.61 22.81"/></svg>